<svg xmlns='http://www.w3.org/2000/svg' viewBox="0 0 18.55 17.52" width="100%" height="100%"><g transform="translate(-54.266,-48.914)"><path d="m 61.472,53.985 a 5.746,5.746 0 0 0 -5.746,5.746 5.746,5.746 0 0 0 5.746,5.747 5.746,5.746 0 0 0 5.746,-5.747 5.746,5.746 0 0 0 -5.746,-5.746 z m 0,1.403 a 4.343,4.343 0 0 1 4.343,4.343 4.343,4.343 0 0 1 -4.343,4.344 4.343,4.343 0 0 1 -4.343,-4.344 4.343,4.343 0 0 1 4.343,-4.343 z"/><circle cx="61.472" cy="59.730999" r="1.136"/><path d="m 61.094,57.127 a 0.378,0.378 0 0 1 0.756,0 v 1.748 a 0.378,0.378 0 0 1 -0.756,0 z m -1.808,2.983 a 0.3785,0.3785 0 0 1 0,-0.757 h 1.393 a 0.378,0.378 0 0 1 0,0.756 z M 56.89,52.44 a 2.624,2.624 0 0 0 -2.624,2.624 2.624,2.624 0 0 0 0.864,1.942 6.904,6.904 0 0 1 3.736,-3.663 2.624,2.624 0 0 0 -1.976,-0.903 z m 9.164,0 a 2.624,2.624 0 0 0 -1.977,0.902 6.904,6.904 0 0 1 3.732,3.669 2.624,2.624 0 0 0 0.869,-1.947 2.624,2.624 0 0 0 -2.624,-2.624 z m -9.399,12.134 a 7.76,6.553 0 0 0 -0.849,1.86 h 1.123 a 6.674,5.635 0 0 1 0.52,-1.176 6.904,6.904 0 0 1 -0.794,-0.684 z m 9.635,0 a 7.76,6.553 0 0 1 0.848,1.86 h -1.123 a 6.674,5.635 0 0 0 -0.52,-1.176 6.904,6.904 0 0 0 0.794,-0.684 z"/></g></svg>
